<svg width="139" height="139" viewBox="0 0 139 139" fill="none" xmlns="http://www.w3.org/2000/svg">
<path fill-rule="evenodd" clip-rule="evenodd" d="M69.5 0C31.1162 0 0 31.1162 0 69.5C0 107.884 31.1162 139 69.5 139C107.884 139 139 107.884 139 69.5C139 31.1162 107.884 0 69.5 0ZM69.5 4C33.3254 4 4 33.3253 4 69.5C4 105.675 33.3254 135 69.5 135C105.675 135 135 105.675 135 69.5C135 33.3253 105.675 4 69.5 4Z" fill="white" fill-opacity="0.6"/>
<path d="M90 69.7096L63.5746 97L63.7559 69.9949L63 43L90 69.7096Z" fill="white" fill-opacity="0.6"/>
</svg>
